# xmcd
#
# Track frame offsets:
#	183
#	21473
#	42773
#	61870
#	81190
#	103233
#	126425
#	147410
#
# Disc length: 2163 seconds
#
# Revision: 0
# Processed by: cddbd v1.5.2PL0 Copyright (c) Steve Scherf et al.
# Submitted via: EasyCDDAExtractor 16.0.6.1
#
DISCID=71087108
DTITLE=Alain Malespine - Montagn L'anmou
DYEAR=1992
DGENRE=Zouk
TTITLE0=Montagn Lanmou
TTITLE1=Lé Gran Filou
TTITLE2=Razwa Ka Palé
TTITLE3=Ho Mam
TTITLE4=Lésé Woulé
TTITLE5=Snobisme
TTITLE6=Kouraj
TTITLE7=Caribbean Trip
EXTD=
EXTT0=
EXTT1=
EXTT2=
EXTT3=
EXTT4=
EXTT5=
EXTT6=
EXTT7=
PLAYORDER=
